<?xml version="1.0" standalone="no"?><!DOCTYPE svg PUBLIC "-//W3C//DTD SVG 1.1//EN" "http://www.w3.org/Graphics/SVG/1.1/DTD/svg11.dtd"><svg t="1767524521464" class="icon" viewBox="0 0 1395 1024" version="1.1" xmlns="http://www.w3.org/2000/svg" p-id="10315" xmlns:xlink="http://www.w3.org/1999/xlink" width="272.4609375" height="200"><path d="M35.817194 41.471623h1328.136172v932.88774H35.817194z" fill="#464646" p-id="10316"></path><path d="M1393.938244 26.702951c0-1.044249-0.820482-2.461445-0.820481-3.505694s-0.820482-2.461445-0.820482-3.505695a6.116318 6.116318 0 0 0-0.820482-2.461445C1390.581728 16.185867 1390.581728 14.91785 1389.462889 13.724422c0 0 0-1.044249-0.820481-1.04425L1387.598158 11.561334c-0.820482-1.044249-0.820482-2.461445-1.93932-2.461446L1383.868696 6.638443c-0.820482-1.044249-1.93932-1.044249-1.939321-2.461445a3.207338 3.207338 0 0 0-2.834391-1.04425c-0.820482 0-1.93932-1.044249-2.834392-1.044249s-1.93932-1.044249-2.834391-1.04425A3.207338 3.207338 0 0 1 1370.666398 0H28.805805A32.147966 32.147966 0 0 0 0.238122 35.80284v951.236695a19.169437 19.169437 0 0 0 0.820482 7.01139c0 1.044249 0.820482 2.461445 0.820482 3.505694s0.820482 2.461445 0.820481 3.505695a5.668783 5.668783 0 0 0 1.939321 3.505695c0 1.044249 0.820482 1.044249 0.820482 2.461445a37.294625 37.294625 0 0 0 7.458925 9.472835c0.820482 0 0.820482 1.044249 1.93932 1.044249s1.93932 1.044249 2.834391 2.461445c0.820482 0 1.93932 1.044249 2.834392 1.04425s2.088499 0.820482 2.98357 0.820482c1.93932 0 3.95323 1.044249 5.594194 1.044249H1365.221383a10.144138 10.144138 0 0 0 5.594194-1.044249c0.820482 0 1.93932-1.044249 2.834391-1.04425s1.93932-1.044249 2.834392-1.044249 1.93932-1.044249 2.834391-2.461446c0.820482 0 0.820482-1.044249 1.939321-1.044249a37.294625 37.294625 0 0 0 7.458925-9.472835c0-1.044249 0.820482-1.044249 0.820482-2.461445s0.820482-2.461445 0.820481-3.505695 0.820482-2.461445 0.820482-3.505694 0.820482-2.461445 0.820482-3.505695c0-2.461445 0.820482-4.92289 0.820482-7.01139V29.8357c0.298357-0.671303 2.237677-2.088499 1.118838-3.132749z m-108.676536 43.933068l-351.389953 356.163665a31.103717 31.103717 0 0 0-8.652353 7.01139 14.91785 14.91785 0 0 0-2.834391 4.92289L687.130518 676.524491l-223.767747-231.823387-0.671304-1.04425c-1.93932-2.461445-3.95323-3.505695-5.594193-5.967139L103.022108 70.636019zM57.373487 117.328889L399.290606 472.075358 57.373487 901.261899zM97.204146 950.117857l345.79576-432.617646 224.886586 232.867636 0.820482 1.04425a5.072069 5.072069 0 0 0 3.95323 2.461445c0.820482 0 0.820482 1.044249 1.939321 1.04425s2.834391 1.044249 3.95323 1.044249h1.93932c1.93932 0 3.95323 1.044249 5.594194 1.04425a10.144138 10.144138 0 0 0 5.594194-1.04425h2.237677c0.820482 0 2.834391-1.044249 3.95323-1.044249s0.820482-1.044249 1.939321-1.04425 2.834391-1.044249 3.95323-2.461445l0.820482-1.04425 239.133133-242.713417 351.986667 442.239659z m1239.076609-50.198565L988.172728 462.453345l348.630151-352.285024v789.601793z" fill="#FFFFFF" p-id="10317"></path></svg>